<svg width="772.9094500000001" height="531.44094" xmlns="http://www.w3.org/2000/svg">

 <g>
  <title>background</title>
  <rect fill="none" id="canvas_background" height="602" width="802" y="-1" x="-1"/>
 </g>
 <g>
  <title>Layer 1</title>
  <path id="svg_1" fill="#ecc81d" d="m106.06906,528.40008a141.78089,141.78089 0 0 1 -106.05278,-139.39392c0.1219,-7.912 0.95378,-15.99006 4.27976,-23.1701s9.50394,-13.39013 17.23186,-15.09142c8.43389,-1.8567 17.33349,1.93874 23.61873,7.861s10.40636,13.736 14.198,21.495c22.83782,46.734 40.18948,96.87978 46.6859,148.48823l0.03853,-0.18879z"/>
  <path id="svg_2" fill="#fff" d="m17.70173,352.3039l16.006,36.36706l16.006,36.36706c5.06915,11.51754 10.12863,23.04012 15.36814,34.48152c5.1935,11.34091 10.56495,22.6034 16.29525,33.684c5.72218,11.06486 11.80377,21.94912 18.40506,32.51522q1.23309,1.9737 2.49042,3.93206c0.58008,0.90425 2.03014,0.06547 1.44595,-0.84519c-6.72793,-10.48763 -12.92723,-21.30541 -18.74161,-32.32388c-5.82064,-11.03036 -11.2609,-22.25747 -16.50019,-33.57425c-5.26729,-11.37725 -10.332,-22.84667 -15.38326,-34.321q-7.97541,-18.11688 -15.948,-36.235l-16.00605,-36.36706l-1.99187,-4.52568c-0.43316,-0.98418 -1.87645,-0.133 -1.44595,0.84519l0.00011,-0.00005z"/>
  <path id="svg_3" fill="#b40a2d" d="m99.39211,528.65286a82.96676,82.96676 0 0 1 -92.692,-43.74066c-2.07267,-4.14071 -3.82153,-8.55926 -4.03308,-13.1849s1.31945,-9.51764 4.87237,-12.48717c3.87749,-3.2408 9.52264,-3.67283 14.38463,-2.29486s9.111,4.32217 13.17418,7.32689c24.47345,18.09816 47.01962,39.44868 64.3248,64.48912l-0.0309,-0.10842z"/>
  <path id="svg_4" fill="#fff" d="m5.97389,461.0826l18.12784,14.56012l18.12782,14.56013c5.74112,4.61123 11.47858,9.22769 17.2876,13.75339c5.758,4.486 11.58722,8.88316 17.55363,13.089c5.958,4.19991 12.05376,8.209 18.33349,11.91267q1.173,0.69183 2.35449,1.36914c0.54528,0.31287 1.07169,-0.51407 0.52254,-0.82916c-6.32429,-3.62871 -12.46326,-7.57153 -18.45656,-11.72247c-5.99977,-4.15542 -11.85515,-8.51568 -17.63042,-12.97675c-5.80611,-4.4849 -11.53195,-9.07235 -17.25211,-13.666q-9.03158,-7.25292 -18.062,-14.50724l-18.12787,-14.56006l-2.25591,-1.8119c-0.49058,-0.394 -1.0101,0.43755 -0.52254,0.82916l0,-0.00003z"/>
  <path id="svg_5" fill="#3f3d56" d="m765.90945,0l-487,0a7.00778,7.00778 0 0 0 -7,7l0,330a7.00779,7.00779 0 0 0 7,7l487,0a7.00778,7.00778 0 0 0 7,-7l0,-330a7.00778,7.00778 0 0 0 -7,-7zm5,337a5.002,5.002 0 0 1 -5,5l-487,0a5.002,5.002 0 0 1 -5,-5l0,-330a5.002,5.002 0 0 1 5,-5l487,0a5.002,5.002 0 0 1 5,5l0,330z"/>
  <rect id="svg_6" fill="#3f3d56" height="2" width="499" y="28.03998" x="272.90945"/>
  <circle id="svg_7" fill="#3f3d56" r="6" cy="15" cx="289.90945"/>
  <circle id="svg_8" fill="#3f3d56" r="6" cy="15" cx="307.15945"/>
  <circle id="svg_9" fill="#3f3d56" r="6" cy="15" cx="324.40945"/>
  <path id="svg_10" fill="#ecc81d" d="m394.77756,74.5l-84,0a7,7 0 1 1 0,-14l84,0a7,7 0 0 1 0,14z"/>
  <path id="svg_11" fill="#ecc81d" d="m509.77756,110.5l-199,0a7,7 0 0 1 0,-14l199,0a7,7 0 0 1 0,14z"/>
  <path id="svg_12" fill="#377e3f" d="m573.9974,122.02301a91.00351,91.00351 0 0 0 75.04394,142.477l0,-79.44l-75.04394,-63.037z"/>
  <path id="svg_13" fill="#ecc81d" d="m649.04134,82.5a90.896,90.896 0 0 0 -75.04394,39.523l75.04394,63.037l0,-102.56z"/>
  <path id="svg_14" fill="#3f3d56" d="m649.04134,265.5l-1,0l0,-184l1,0a92,92 0 1 1 0,184zm1,-181.99463l0,179.98926a90.00019,90.00019 0 0 0 0,-179.98926z"/>
  <path id="svg_15" fill="#ecc81d" d="0"/>
  <path id="svg_16" fill="#b40a2d" d="m418.77756,303l-17,0a4.50508,4.50508 0 0 1 -4.5,-4.5l0,-72a4.50508,4.50508 0 0 1 4.5,-4.5l17,0a4.50507,4.50507 0 0 1 4.5,4.5l0,72a4.50508,4.50508 0 0 1 -4.5,4.5z"/>
  <path id="svg_17" fill="#377e3f" d="m468.77756,303l-17,0a4.50508,4.50508 0 0 1 -4.5,-4.5l0,-92a4.50508,4.50508 0 0 1 4.5,-4.5l17,0a4.50507,4.50507 0 0 1 4.5,4.5l0,92a4.50508,4.50508 0 0 1 -4.5,4.5z"/>
  <path id="svg_18" fill="#3f3d56" d="m368.77756,303.5l-17,0a5.00573,5.00573 0 0 1 -5,-5l0,-110a5.00573,5.00573 0 0 1 5,-5l17,0a5.00573,5.00573 0 0 1 5,5l0,110a5.00573,5.00573 0 0 1 -5,5zm-17,-118a3.00328,3.00328 0 0 0 -3,3l0,110a3.00329,3.00329 0 0 0 3,3l17,0a3.00328,3.00328 0 0 0 3,-3l0,-110a3.00328,3.00328 0 0 0 -3,-3l-17,0z"/>
  <path id="svg_19" fill="#3f3d56" d="m418.77756,303.5l-17,0a5.00573,5.00573 0 0 1 -5,-5l0,-110a5.00573,5.00573 0 0 1 5,-5l17,0a5.00573,5.00573 0 0 1 5,5l0,110a5.00573,5.00573 0 0 1 -5,5zm-17,-118a3.00328,3.00328 0 0 0 -3,3l0,110a3.00329,3.00329 0 0 0 3,3l17,0a3.00328,3.00328 0 0 0 3,-3l0,-110a3.00328,3.00328 0 0 0 -3,-3l-17,0z"/>
  <path id="svg_20" fill="#3f3d56" d="m468.77756,303.5l-17,0a5.00573,5.00573 0 0 1 -5,-5l0,-110a5.00573,5.00573 0 0 1 5,-5l17,0a5.00573,5.00573 0 0 1 5,5l0,110a5.00573,5.00573 0 0 1 -5,5zm-17,-118a3.00328,3.00328 0 0 0 -3,3l0,110a3.00329,3.00329 0 0 0 3,3l17,0a3.00328,3.00328 0 0 0 3,-3l0,-110a3.00328,3.00328 0 0 0 -3,-3l-17,0z"/>
  <path id="svg_21" fill="#ffb8b8" d="m112.43142,359.00255a10.05577,10.05577 0 0 0 -8.78482,-12.67208l-8.59987,-34.68465l-12.58652,13.65332l10.09618,30.84389a10.11028,10.11028 0 0 0 19.875,2.85952l0.00003,0z"/>
  <path id="svg_22" fill="#2f2e41" d="m89.37473,348.335a4.50494,4.50494 0 0 1 -2.5174,-2.66936l-14.35616,-44.17817a46.37348,46.37348 0 0 1 0.76364,-32.63527l13.83846,-34.35489a14.49652,14.49652 0 1 1 28.5985,4.76667l-19.09249,55.55769l6.683,45.23868a4.51467,4.51467 0 0 1 -2.5399,4.50394l-7.70875,3.67825a4.50568,4.50568 0 0 1 -2.65851,0.38041a4.45465,4.45465 0 0 1 -1.01039,-0.28795z"/>
  <polygon id="svg_23" fill="#ffb8b8" points="160.343 518.443 172.603 518.442 178.435 471.154 160.341 471.155 160.343 518.443"/>
  <path id="svg_24" fill="#2f2e41" transform="rotate(179.99737548828125 567.540771484375,1229.02734375) " d="m938.8023,1928.24627l38.53073,0a0,0 0 0 1 0,0l0,14.88687a0,0 0 0 1 0,0l-23.64387,0a14.88686,14.88686 0 0 1 -14.88686,-14.88686l0,0a0,0 0 0 1 0,-0.00001z"/>
  <polygon id="svg_25" fill="#ffb8b8" points="99.343 518.443 111.603 518.442 117.435 471.154 99.341 471.155 99.343 518.443"/>
  <path id="svg_26" fill="#2f2e41" transform="rotate(179.99737548828125 445.54077148437506,1229.0301513671877) " d="m755.8023,1928.24908l38.53073,0a0,0 0 0 1 0,0l0,14.88687a0,0 0 0 1 0,0l-23.64387,0a14.88686,14.88686 0 0 1 -14.88686,-14.88686l0,0a0,0 0 0 1 0,-0.00001z"/>
  <path id="svg_27" fill="#2f2e41" d="m163.69422,325.71125l10.77686,85.38587q2.22236,17.60784 3.10973,35.34585l2.90343,58.06853a4,4 0 0 1 -3.995,4.19975l-16.35634,0a4,4 0 0 1 -3.95471,-3.39973l-14.71008,-96.91351a2,2 0 0 0 -3.94338,-0.06694l-17.72158,94.91672a4,4 0 0 1 -3.62623,3.18424l-15.05405,0.95518a4,4 0 0 1 -4.28995,-4.11428l4.8613,-155.56168l62,-22z"/>
  <circle id="svg_28" fill="#ffb8b8" r="24.56103" cy="179.53015" cx="115.94619"/>
  <path id="svg_29" fill="#377e3f" d="m96.69422,349.71125c6,14 32,24 38,4c4.64014,-15.46 23.02,-21.96 31.12989,-24.11a4.01608,4.01608 0 0 0 2.86035,-4.86005l-22.67041,-89.05a31.272,31.272 0 0 0 -21.06006,-22.16c-18.01953,-5.58 -37.01953,5.91 -40.06983,24.52a137.15658,137.15658 0 0 0 -1.58984,15.76c-1.88037,39.29007 9.44971,86.68002 13.3999,95.90005z"/>
  <path id="svg_30" fill="#ffb8b8" d="m178.08411,349.68556a10.05577,10.05577 0 0 0 -12.75277,-8.66732l-20.49275,-29.275l-6.83741,17.2651l20.50855,25.15313a10.11027,10.11027 0 0 0 19.57442,-4.47588l-0.00004,-0.00003z"/>
  <path id="svg_31" fill="#2f2e41" d="m152.73394,348.019a4.505,4.505 0 0 1 -3.30867,-1.586l-29.27686,-36.06483a46.37356,46.37356 0 0 1 -11.01848,-30.72844l0.56429,-37.033a14.49652,14.49652 0 1 1 28.40042,-5.832l2.15442,58.70723l22.49784,39.81265a4.51467,4.51467 0 0 1 -0.75115,5.1159l-5.87132,6.20338a4.50564,4.50564 0 0 1 -2.34406,1.31062a4.4548,4.4548 0 0 1 -1.04643,0.09449z"/>
  <path id="svg_32" fill="#2f2e41" d="m97.30373,199.61936a4.00709,4.00709 0 0 0 5.90278,-2.36826l0.01371,-0.0559c0.44576,-1.86412 0.0756,-3.81068 -0.05232,-5.72308s0.05925,-4.01327 1.36174,-5.41937c2.428,-2.62114 6.74756,-1.23165 10.25844,-1.8944a8.66429,8.66429 0 0 0 6.74007,-9.25291c-0.05,-0.3975 -0.12841,-0.79545 -0.21633,-1.19315a6.67288,6.67288 0 0 1 6.92675,-8.0813c3.5481,0.20288 7.378,1.2779 10.31357,-1.35011a7.60777,7.60777 0 0 0 1.82654,-8.20134c-1.67623,-4.8383 -6.4137,-7.37124 -11.10186,-8.76367a40.62025,40.62025 0 0 0 -34.43036,5.64955c-2.96118,2.08724 -5.72662,4.70983 -6.98873,8.10575s-0.65322,7.6803 2.19278,9.92206a18.332,18.332 0 0 0 -4.24619,17.80643c1.40571,4.52946 8.11447,8.87203 11.49941,10.8197z"/>
  <path id="svg_33" fill="#3f3d56" d="m276.1063,531.44094l-265,0a1,1 0 0 1 0,-2l265,0a1,1 0 0 1 0,2z"/>
 </g>
</svg>