<svg width="685" height="579" viewBox="0 0 685 579" fill="none"
    xmlns="http://www.w3.org/2000/svg">
    <path d="M225.4 231.963C99.6132 -185.944 22.3901 54.503 0 228.631L0 586L681 586L681 231.963C642.56 -111.724 568.043 88.7603 535.59 231.963C484.605 406.092 351.187 649.871 225.4 231.963Z" fill="#CACACA" />
    <path d="M185.114 514.129C126.137 349.811 37.1308 400.986 0 447.114V581H680V248.5C692.129 236.756 688.053 235.493 593.318 327.223C498.582 418.953 486.805 289.002 492.759 212.56C489.519 -193.013 404.05 109.136 361.721 310.907C327.426 447.114 244.091 678.447 185.114 514.129Z" fill="#C4C4C4" />
</svg>
